<?xml version="1.0" standalone="no"?><!DOCTYPE svg PUBLIC "-//W3C//DTD SVG 1.1//EN" "http://www.w3.org/Graphics/SVG/1.1/DTD/svg11.dtd"><svg t="1621901490923" class="icon" viewBox="0 0 1024 1024" version="1.1" xmlns="http://www.w3.org/2000/svg" p-id="2362" xmlns:xlink="http://www.w3.org/1999/xlink" width="200" height="200"><defs><style type="text/css"></style></defs><path d="M872.373225 358.3413h-80.103007v-76.761619c0-148.466002-125.527824-268.755975-280.315372-268.755975S231.639474 133.113678 231.639474 281.579681v76.761619h-80.103007c-44.160508 0-80.103007 34.407267-80.103007 76.761619v422.369521c0 84.799012 71.704383 153.613546 160.115707 153.613546h560.630743c88.501632 0 160.206015-68.724226 160.206015-153.613546V435.193227c0.090308-42.354352-35.852192-76.851927-80.0127-76.851927z m-560.630743-76.761619c0-51.204515 20.770791-99.519182 58.700061-135.732605 37.929271-36.213423 88.050093-56.261751 141.512303-56.261751s103.763648 19.958021 141.512303 56.261751c37.929271 36.213423 58.700062 84.437781 58.700062 135.732605v76.761619H311.742482v-76.761619zM872.373225 857.562748c0 42.354352-35.942499 76.761619-80.103007 76.761619H231.639474c-44.160508 0-80.103007-34.407267-80.103007-76.761619V435.193227H872.373225v422.369521z m-360.418379-57.616368c22.125408 0 40.00635-17.15848 40.00635-38.38081V607.952024c0-21.22233-17.880942-38.38081-40.00635-38.38081-22.125408 0-40.00635 17.15848-40.00635 38.38081v153.613546c0 21.22233 17.880942 38.38081 40.00635 38.38081z" p-id="2363" fill="#8a8a8a"></path></svg>